<svg width="34" height="34" viewBox="0 0 34 34" fill="none" xmlns="http://www.w3.org/2000/svg">
<path d="M32.7479 12.092L29.1534 5.90801C28.6339 5.01427 27.4832 4.70793 26.5834 5.22407L25.2983 5.96104C24.0441 6.6803 22.4763 5.7812 22.4763 4.34267V2.86873C22.4763 1.83668 21.6339 1 20.5949 1H13.4058C12.3668 1 11.5244 1.83668 11.5244 2.86873V4.34267C11.5244 5.7812 9.95657 6.6803 8.70233 5.96104L7.41728 5.22407C6.51746 4.70804 5.3668 5.01427 4.84728 5.90801L1.25242 12.092C0.732896 12.9857 1.0412 14.1286 1.94101 14.6447L3.22607 15.3816C4.48031 16.1009 4.48031 17.8991 3.22607 18.6184L1.94101 19.3553C1.0412 19.8714 0.732786 21.0143 1.25242 21.908L4.84695 28.092C5.36647 28.9857 6.51713 29.2921 7.41695 28.7759L8.702 28.039C9.95624 27.3197 11.5241 28.2188 11.5241 29.6573V31.1313C11.5241 32.1633 12.3664 33 13.4055 33H20.5945C21.6336 33 22.4759 32.1633 22.4759 31.1313V29.6573C22.4759 28.2188 24.0438 27.3197 25.298 28.039L26.5831 28.7759C27.4829 29.292 28.6335 28.9857 29.1531 28.092L32.7476 21.908C33.2671 21.0143 32.9588 19.8714 32.059 19.3553L30.7739 18.6184C29.5197 17.8991 29.5197 16.1009 30.7739 15.3816L32.059 14.6447C32.9588 14.1286 33.2672 12.9857 32.7476 12.092H32.7479Z" fill="#FFC347"/>
<path d="M17.0001 26.5984C22.337 26.5984 26.6635 22.3011 26.6635 17.0001C26.6635 11.6991 22.337 7.40186 17.0001 7.40186C11.6631 7.40186 7.33667 11.6991 7.33667 17.0001C7.33667 22.3011 11.6631 26.5984 17.0001 26.5984Z" fill="#FFCF8A"/>
<path d="M17.0002 22.4999C20.0582 22.4999 22.5372 20.0376 22.5372 17.0002C22.5372 13.9628 20.0582 11.5005 17.0002 11.5005C13.9421 11.5005 11.4631 13.9628 11.4631 17.0002C11.4631 20.0376 13.9421 22.4999 17.0002 22.4999Z" fill="white"/>
<path fill-rule="evenodd" clip-rule="evenodd" d="M17.0002 14.1024C15.3891 14.1024 14.083 15.3996 14.083 16.9999C14.083 18.6001 15.3891 19.8973 17.0002 19.8973C18.6113 19.8973 19.9173 18.6001 19.9173 16.9999C19.9173 15.3996 18.6113 14.1024 17.0002 14.1024ZM8.84326 16.9999C8.84326 12.5253 12.4952 8.89795 17.0002 8.89795C21.5051 8.89795 25.1571 12.5253 25.1571 16.9999C25.1571 21.4744 21.5051 25.1018 17.0002 25.1018C12.4952 25.1018 8.84326 21.4744 8.84326 16.9999Z" fill="#FF822E"/>
</svg>
