<svg width="34" height="34" viewBox="0 0 34 34" fill="none" xmlns="http://www.w3.org/2000/svg">
<path d="M16.9349 6.92529H7.53837C3.92733 6.92529 1 9.85427 1 13.4674V26.458C1 30.0711 3.92733 33 7.53837 33H16.9349C20.5459 33 23.4732 30.0711 23.4732 26.458V13.4674C23.4732 9.85427 20.5459 6.92529 16.9349 6.92529Z" fill="#B6F4DC"/>
<path fill-rule="evenodd" clip-rule="evenodd" d="M11.9969 1C9.41759 1 7.32666 3.09211 7.32666 5.67283V22.57C7.32666 25.1507 9.41759 27.2428 11.9969 27.2428H25.2693C27.8486 27.2428 29.9395 25.1507 29.9395 22.57V7.75237C29.9395 6.91914 30.2485 6.1156 30.8065 5.49735L32.6116 3.49765C33.4797 2.53598 32.7976 1.00012 31.5025 1.00012H27.2692C26.7939 1.00012 26.3034 1.09025 25.8313 1.03364C25.647 1.01149 25.4594 1.00012 25.2692 1.00012H11.9969V1Z" fill="#00CE7C"/>
<path d="M13.3576 6.2334H23.9123C24.3818 6.2334 24.7623 6.61395 24.7623 7.08338C24.7623 7.55282 24.3818 7.93337 23.9123 7.93337H13.3576C12.8881 7.93337 12.5076 7.55282 12.5076 7.08338C12.5076 6.61395 12.8881 6.2334 13.3576 6.2334Z" fill="#B6F4DC"/>
<path d="M24.5235 13.436C25.0802 15.157 24.6143 16.9082 23.6329 18.2277C22.9848 19.1224 22.2105 19.8935 21.4189 20.5678C20.7749 21.1676 19.4265 22.2863 18.8238 22.5635C18.6991 22.6209 18.5576 22.6181 18.4326 22.5615C18.106 22.4137 17.7671 22.0835 17.5149 21.8985C15.8113 20.6026 13.9775 19.0265 13.0476 17.3035C12.268 15.6492 12.2665 13.6031 13.4799 12.3347C15.0532 10.9153 17.4252 11.1927 18.6284 12.6756C18.9516 12.2561 19.349 11.9262 19.8207 11.6858C21.7325 10.9222 23.7214 11.7003 24.5237 13.436H24.5235Z" fill="white"/>
</svg>
