<svg width="34" height="34" viewBox="0 0 34 34" fill="none" xmlns="http://www.w3.org/2000/svg">
<path d="M4.00293 7.62598C4.00293 6.52141 4.89836 5.62598 6.00293 5.62598H28.0003C29.1049 5.62598 30.0003 6.52141 30.0003 7.62598V12.1253H4.00293V7.62598Z" fill="#00CE7C"/>
<path d="M4.00293 29.6238C4.00293 30.7284 4.89836 31.6238 6.00293 31.6238H28.0003C29.1049 31.6238 30.0003 30.7283 30.0003 29.6238V13.7506H4.00293V29.6238Z" fill="#F1F9F6"/>
<path d="M22.7199 16.9995L16.6071 24.3608L13.166 20.6379" stroke="#00CE7C" stroke-width="2" stroke-linecap="round" stroke-linejoin="round"/>
<rect x="8.87793" y="2.37671" width="3.24967" height="4.87451" rx="1.62484" fill="#00CE7C"/>
<rect x="21.875" y="2.37671" width="3.24967" height="4.87451" rx="1.62484" fill="#00CE7C"/>
<path d="M4.00293 29.6238C4.00293 30.7283 4.89836 31.6238 6.00293 31.6238H28.0003C29.1049 31.6238 30.0003 30.7283 30.0003 29.6238V28.3741H4.00293V29.6238Z" fill="#00CE7C"/>
</svg>
