<svg width="34" height="34" viewBox="0 0 34 34" fill="none" xmlns="http://www.w3.org/2000/svg">
<path d="M32.0789 3.42663C29.056 0.417885 24.3262 0.540993 21.1348 3.71751L19.9564 5.05071C19.6507 5.39651 19.1663 5.52572 18.7278 5.37838L10.1296 2.48886C10.0664 2.46761 10.0052 2.44046 9.9458 2.41015C8.48318 1.66376 6.69799 1.93989 5.53165 3.10336C4.05343 4.57788 4.05482 6.96554 5.53468 8.43844L10.8526 13.7314C11.2806 14.1574 11.3025 14.8409 10.9027 15.2932L8.8702 17.5927C8.47734 18.0371 7.80838 18.1091 7.32916 17.7585L5.356 16.3148C4.49552 15.6853 3.11669 15.9784 2.18739 16.9883C0.77845 18.5194 0.597798 20.6361 1.78273 21.728L3.65488 23.4532C3.66564 23.4632 3.6665 23.4798 3.65681 23.4908C3.64715 23.5017 3.64797 23.5183 3.65867 23.5282L7.21925 26.8336C9.38299 28.8424 12.9002 28.6112 15.0862 26.3167L31.3981 9.19456C33.3014 6.97537 33.4832 4.82433 32.0789 3.42663Z" fill="#8AE6FF"/>
<path d="M29.3814 13.2598H19.0614C17.1644 13.2598 15.6265 14.7904 15.6265 16.6786V27.5952V27.6265V30.6882C15.6265 32.4196 17.8181 33.377 19.2864 32.2869L23.6602 29.0399C23.9932 28.7927 24.4498 28.7927 24.7829 29.0399L29.1566 32.2869C30.6249 33.377 32.8166 32.4196 32.8166 30.6882V16.6786C32.8166 14.7904 31.2787 13.2598 29.3816 13.2598H29.3814Z" fill="#5B7EFF"/>
<path d="M24.8323 16.8409L25.8623 18.9181C25.9616 19.1182 26.1533 19.257 26.3752 19.289L28.6783 19.6221C29.2371 19.7029 29.4602 20.3864 29.0559 20.7787L27.3893 22.3955C27.2287 22.5513 27.1555 22.7757 27.1933 22.9956L27.5867 25.2786C27.6822 25.8325 27.098 26.2549 26.5983 25.9935L24.5383 24.9155C24.3398 24.8116 24.1027 24.8116 23.9043 24.9155L21.8443 25.9935C21.3444 26.2549 20.7603 25.8326 20.8558 25.2786L21.2492 22.9956C21.2872 22.7756 21.2138 22.5513 21.0532 22.3955L19.3866 20.7787C18.9823 20.3864 19.2054 19.7029 19.7642 19.6221L22.0673 19.289C22.2892 19.2568 22.481 19.1182 22.5803 18.9181L23.6103 16.8409C23.8601 16.3369 24.5822 16.3369 24.8321 16.8409H24.8323Z" fill="white"/>
</svg>
